<?xml version="1.0" encoding="UTF-8"?>
<svg width="1200pt" height="1200pt" version="1.1" viewBox="0 0 1200 1200" xmlns="http://www.w3.org/2000/svg">
 <path d="m1136.8 540.72-6.3359-15.852-9.6484-14.652-17.965-11.207-14.426-12.301-60.562-248.34-8.9766-19.078-12.098-17.195-13.98-15.312-17.293-12.742-18.301-9.5391-20.398-6.3125-20.41-3.1211-158.83-8.3203-157.5-3.7695-105.93 1.2227-105.25 3.875-105.71 6.9844-21.086 3.7695-21.07 6.3242-19.078 10.211-16.645 13.297-14.641 15.984-12.086 18.406-8.3164 19.738-59.348 243.92-15.863 8.8672-13.309 12.086-10.871 14.652-7.6445 16.523-3.2148 17.855v17.855l1.332 72.539 5.7617 71.977 22.293 142.54 3.7695 14.652 7.5352 12.742 10.211 12.758v87.84l2.0039 14.652 5.1016 14.641 7.5352 12.742 10.871 10.871 12.758 7.5352 14.746 5.125 14.531 1.8711 15.312-1.8711 13.98-5.125 12.758-7.5352 17.52-15.863 6.7695-22.391 1.2227-14.652v-88.5h707.32l1.332 103.15 4.9922 14.641 8.3047 12.742 10.211 10.871 13.309 7.5352 13.969 5.125 15.422 1.8711 14.652-1.8711 14.641-5.125 12.742-7.5352 10.211-10.871 8.3164-12.742 6.9844-29.281v-88.5l12.648-16.859 8.9766-22.633 20.977-142.54 8.3164-144.52 0.66797-17.211zm-980.07 145.06c-47.258 0.13281-74.762-37.586-72.539-71.195-3.875-35.82 30.73-73.211 71.438-71.316 44.594-1.332 73.871 30.949 72.539 71.207 0.43359 41.039-33.625 72.539-71.438 71.305zm81.191-2.5195 12.086-19.094 7.6562-20.953h673.93l7.7656 20.953 12.098 19.094zm11.426-117.13h691.23l-8.3281 19.066-3.2148 14.207-0.5625 6.2148-667.81 0.003907-3.7695-20.41zm547.71-102.61-124.34-3.7578-124.33-0.67188-124.46 3.8789-125 6.9844-99.266 6.9844v0.011718h-0.10938l0.10938-0.011718 44.594-192.31 3.7695-11.426 7.0938-10.211 9.5391-8.3164 22.957-8.8672 123.78-10.094 123.67-5.7617h124.33l123.02 3.8672 124.33 9.5391 15.973 5.1016 13.414 10.094 10.754 13.309 6.4336 15.301 42.707 189.12zm235.57 224.06c-47.148 0.10938-74.746-37.609-72.527-71.219-3.8867-35.93 30.719-73.211 71.426-71.316 44.578-1.3203 73.871 30.949 72.539 71.207 0.5625 40.934-33.613 72.531-71.438 71.328z"/>
</svg>
