<?xml version="1.0" encoding="UTF-8"?>
<svg xmlns="http://www.w3.org/2000/svg" xmlns:xlink="http://www.w3.org/1999/xlink" width="160px" height="160px" viewBox="0 0 160 160" version="1.1">
  <path d="M 151.574219 72.097656 L 150.730469 69.980469 L 149.441406 68.027344 L 147.046875 66.535156 L 145.125 64.894531 L 137.046875 31.78125 L 135.851562 29.238281 L 134.238281 26.945312 L 132.375 24.90625 L 130.070312 23.207031 L 127.628906 21.933594 L 124.910156 21.09375 L 122.1875 20.675781 L 101.011719 19.566406 L 80.011719 19.0625 L 65.886719 19.226562 L 51.851562 19.742188 L 37.757812 20.675781 L 34.945312 21.175781 L 32.136719 22.019531 L 29.59375 23.382812 L 27.375 25.15625 L 25.421875 27.285156 L 23.8125 29.742188 L 22.703125 32.371094 L 14.789062 64.894531 L 12.671875 66.078125 L 10.898438 67.6875 L 9.449219 69.640625 L 8.429688 71.84375 L 8 74.226562 L 8 76.605469 L 8.179688 86.277344 L 8.949219 95.875 L 11.921875 114.878906 L 12.421875 116.835938 L 13.425781 118.53125 L 14.789062 120.234375 L 14.789062 131.945312 L 15.054688 133.898438 L 15.734375 135.851562 L 16.742188 137.550781 L 18.191406 139 L 19.890625 140.003906 L 21.859375 140.6875 L 23.796875 140.9375 L 25.835938 140.6875 L 27.699219 140.003906 L 29.402344 139 L 31.738281 136.886719 L 32.640625 133.898438 L 32.804688 131.945312 L 32.804688 120.144531 L 127.113281 120.144531 L 127.289062 133.898438 L 127.957031 135.851562 L 129.0625 137.550781 L 130.425781 139 L 132.199219 140.003906 L 134.0625 140.6875 L 136.117188 140.9375 L 138.070312 140.6875 L 140.023438 140.003906 L 141.722656 139 L 143.085938 137.550781 L 144.191406 135.851562 L 145.125 131.949219 L 145.125 120.148438 L 146.8125 117.898438 L 148.007812 114.882812 L 150.804688 95.875 L 151.914062 76.605469 L 152.003906 74.3125 Z M 20.898438 91.4375 C 14.597656 91.453125 10.929688 86.425781 11.226562 81.945312 C 10.707031 77.167969 15.324219 72.183594 20.75 72.4375 C 26.695312 72.257812 30.601562 76.5625 30.421875 81.929688 C 30.480469 87.402344 25.9375 91.601562 20.898438 91.4375 Z M 31.722656 91.101562 L 33.335938 88.554688 L 34.355469 85.761719 L 124.210938 85.761719 L 125.246094 88.554688 L 126.859375 91.101562 Z M 33.246094 75.484375 L 125.410156 75.484375 L 124.300781 78.027344 L 123.871094 79.921875 L 123.796875 80.75 L 34.753906 80.75 L 34.253906 78.027344 Z M 106.273438 61.800781 L 89.695312 61.300781 L 73.117188 61.210938 L 56.523438 61.730469 L 39.855469 62.660156 L 26.621094 63.59375 L 26.605469 63.59375 L 26.621094 63.59375 L 32.566406 37.949219 L 33.070312 36.425781 L 34.015625 35.066406 L 35.289062 33.957031 L 38.347656 32.773438 L 54.851562 31.429688 L 71.34375 30.660156 L 87.917969 30.660156 L 104.320312 31.175781 L 120.898438 32.449219 L 123.027344 33.128906 L 124.816406 34.472656 L 126.25 36.25 L 127.109375 38.289062 L 132.804688 63.503906 Z M 137.683594 91.675781 C 131.398438 91.691406 127.71875 86.664062 128.011719 82.179688 C 127.496094 77.390625 132.109375 72.421875 137.535156 72.671875 C 143.480469 72.496094 147.386719 76.800781 147.207031 82.167969 C 147.285156 87.625 142.726562 91.835938 137.683594 91.675781 Z M 137.683594 91.675781 "/>
</svg>
