<?xml version="1.0" encoding="UTF-8"?>
<svg width="1200pt" height="1200pt" version="1.1" viewBox="0 0 1200 1200" xmlns="http://www.w3.org/2000/svg">
 <path d="m1033.3 316.67v-91.668c0-13.801-11.207-24.996-25.008-24.996-13.789 0-24.996 11.195-24.996 24.996v91.668h-99.996v-91.668c0-13.801-11.207-24.996-25.008-24.996-13.789 0-24.996 11.195-24.996 24.996v91.668h-50.004v50.004c0 71.363 49.883 130.98 116.68 146.16v187.18l49.871 367.95c-0.70703 36.168-30.215 65.387-66.539 65.387-36.742 0-66.637-29.867-66.672-66.602h0.011719v-466.68l-0.015626-0.058594c0-55.141-44.855-99.996-99.996-99.996h-100.01v-402.78c0.015625-53.613-44.844-97.223-99.996-97.223h-300c-55.137 0-99.992 43.609-99.992 97.223v1102.8h500v-633.34h99.996c18.371 0 33.324 14.965 33.324 33.336l0.011718 0.058594v466.6h-0.011718c0 73.523 59.809 133.33 133.33 133.33 73.523 0.011719 133.34-59.797 133.34-133.32l-50.004-368.93-0.003907-184.92c66.781-15.18 116.66-74.785 116.66-146.16v-50.004h-49.988zm-790.38 562.92 71.797-143.58-89.746-0.003907 125.64-215.4h89.734l-89.738 143.59h107.69zm307.05-526.81c0 16.848-14.965 30.551-33.336 30.551h-300c-18.371 0-33.336-13.703-33.336-30.551l-0.003906-255.55c0-16.848 14.965-30.551 33.336-30.551h300c18.371 0 33.336 13.703 33.336 30.551z"/>
</svg>
