<?xml version="1.0" encoding="UTF-8"?>
<svg xmlns="http://www.w3.org/2000/svg" xmlns:xlink="http://www.w3.org/1999/xlink" width="160px" height="160px" viewBox="0 0 160 160" version="1.1">
  <path d="M 137.773438 42.222656 L 137.773438 30 C 137.773438 28.160156 136.277344 26.667969 134.4375 26.667969 C 132.601562 26.667969 131.105469 28.160156 131.105469 30 L 131.105469 42.222656 L 117.773438 42.222656 L 117.773438 30 C 117.773438 28.160156 116.277344 26.667969 114.4375 26.667969 C 112.601562 26.667969 111.105469 28.160156 111.105469 30 L 111.105469 42.222656 L 104.4375 42.222656 L 104.4375 48.890625 C 104.4375 58.40625 111.089844 66.355469 119.996094 68.378906 L 119.996094 93.335938 L 126.644531 142.394531 C 126.550781 147.21875 122.617188 151.113281 117.773438 151.113281 C 112.875 151.113281 108.890625 147.132812 108.882812 142.234375 L 108.886719 142.234375 L 108.886719 80.007812 L 108.882812 80 C 108.882812 72.648438 102.902344 66.667969 95.550781 66.667969 L 82.214844 66.667969 L 82.214844 12.964844 C 82.21875 5.816406 76.238281 0 68.882812 0 L 28.882812 0 C 21.53125 0 15.550781 5.816406 15.550781 12.964844 L 15.550781 160.003906 L 82.21875 160.003906 L 82.21875 75.558594 L 95.550781 75.558594 C 98 75.558594 99.992188 77.554688 99.992188 80.003906 L 99.996094 80.011719 L 99.996094 142.226562 L 99.992188 142.226562 C 99.992188 152.027344 107.96875 160.003906 117.769531 160.003906 C 127.574219 160.003906 135.550781 152.03125 135.550781 142.226562 L 128.882812 93.035156 L 128.882812 68.378906 C 137.785156 66.355469 144.4375 58.410156 144.4375 48.890625 L 144.4375 42.226562 L 137.773438 42.226562 Z M 32.390625 117.277344 L 41.960938 98.132812 L 29.996094 98.132812 L 46.75 69.414062 L 58.710938 69.414062 L 46.746094 88.558594 L 61.105469 88.558594 Z M 73.328125 47.039062 C 73.328125 49.285156 71.335938 51.109375 68.882812 51.109375 L 28.882812 51.109375 C 26.433594 51.109375 24.441406 49.285156 24.441406 47.039062 L 24.4375 12.964844 C 24.4375 10.71875 26.433594 8.890625 28.882812 8.890625 L 68.882812 8.890625 C 71.332031 8.890625 73.328125 10.71875 73.328125 12.964844 Z M 73.328125 47.039062 "/>
</svg>
