<?xml version="1.0" encoding="UTF-8"?>
<svg xmlns="http://www.w3.org/2000/svg" xmlns:xlink="http://www.w3.org/1999/xlink" width="160px" height="160px" viewBox="0 0 160 160" version="1.1">
  <path d="M 112.15625 148.535156 L 102.53125 148.535156 L 102.53125 69.171875 C 105.292969 69.171875 105.078125 70.445312 105.078125 71.289062 L 105.078125 133.042969 C 105.078125 141.105469 111.019531 146.621094 118.019531 146.621094 C 125.238281 146.621094 130.753906 140.890625 130.753906 133.253906 C 130.753906 125.609375 120.570312 103.546875 120.570312 96.332031 L 120.570312 37.339844 C 120.570312 32.882812 118.871094 29.0625 116.539062 27.152344 L 102.53125 15.695312 L 102.53125 6.570312 C 102.53125 2.96875 99.558594 -0.0078125 95.953125 -0.0078125 L 45.449219 -0.0078125 C 41.84375 -0.0078125 38.871094 2.96875 38.871094 6.570312 L 38.871094 148.53125 L 29.246094 148.53125 L 29.246094 159.992188 L 112.15625 159.992188 Z M 89.796875 44.554688 L 51.605469 44.554688 C 49.90625 44.554688 48.210938 43.070312 48.210938 41.164062 L 48.210938 11.878906 C 48.210938 9.972656 49.90625 8.484375 51.605469 8.484375 L 89.796875 8.484375 C 91.496094 8.484375 93.195312 9.972656 93.195312 11.878906 L 93.195312 41.167969 C 93.195312 43.070312 91.496094 44.558594 89.796875 44.558594 Z M 118.019531 140.46875 C 113.988281 140.46875 111.445312 137.5 111.445312 133.042969 L 111.445312 64.925781 C 111.445312 62.59375 108.6875 61.53125 106.144531 61.53125 L 102.535156 61.53125 L 102.535156 24.398438 C 104.230469 25.667969 105.503906 27.152344 105.503906 28.855469 L 105.503906 41.164062 L 113.988281 41.164062 L 113.988281 94.210938 C 113.988281 107.574219 124.601562 125.613281 124.601562 133.253906 C 124.601562 137.289062 122.054688 140.472656 118.019531 140.472656 Z M 118.019531 140.46875 "/>
</svg>
