<?xml version="1.0" encoding="UTF-8"?>
<svg width="1200pt" height="1200pt" version="1.1" viewBox="0 0 1200 1200" xmlns="http://www.w3.org/2000/svg">
 <path d="m841.18 1114h-72.191v-595.2c20.711 0 19.105 9.5391 19.105 15.875v463.14c0 60.469 44.566 101.84 97.066 101.84 54.121 0 95.484-42.961 95.484-100.25 0-57.324-76.367-222.8-76.367-276.91l-0.003906-442.44c0-33.434-12.73-62.09-30.238-76.414l-105.05-85.922-0.003907-68.449c0-27.012-22.285-49.32-49.344-49.32h-378.77c-27.051 0-49.332 22.309-49.332 49.32v1064.7h-72.191v85.957h621.83zm-167.69-779.83h-286.45c-12.742 0-25.453-11.148-25.453-25.441v-219.64c0-14.293 12.707-25.453 25.453-25.453h286.45c12.742 0 25.477 11.16 25.477 25.453v219.66c-0.003906 14.277-12.734 25.426-25.48 25.426zm211.67 719.36c-30.254 0-49.332-22.273-49.332-55.715v-510.86c0-17.508-20.676-25.477-39.758-25.477h-27.07l0.003906-278.5c12.73 9.5391 22.262 20.676 22.262 33.434v92.316h63.66v397.85c0 100.23 79.598 235.51 79.598 292.84-0.003907 30.25-19.121 54.117-49.363 54.117z"/>
</svg>
