<?xml version="1.0" encoding="UTF-8"?>
<svg xmlns="http://www.w3.org/2000/svg" xmlns:xlink="http://www.w3.org/1999/xlink" width="160px" height="160px" viewBox="0 0 160 160" version="1.1">
  <g>
    <path d="M 78.496094 52.105469 C 74.441406 52.105469 71.765625 52.492188 70.226562 52.886719 L 70.226562 78.90625 C 71.984375 79.296875 74.050781 79.425781 76.929688 79.425781 C 87.519531 79.425781 94.054688 74.0625 94.054688 65.046875 C 94.058594 56.9375 88.429688 52.105469 78.496094 52.105469 Z M 78.496094 52.105469 "/>
    <path d="M 139.132812 0 L 20.691406 0 C 10.234375 0 1.761719 8.476562 1.761719 18.933594 L 1.761719 140.898438 C 1.761719 151.351562 10.238281 159.824219 20.691406 159.824219 L 139.132812 159.824219 C 149.59375 159.824219 158.0625 151.347656 158.0625 140.898438 L 158.0625 18.933594 C 158.066406 8.472656 149.59375 0 139.132812 0 Z M 146.398438 137.859375 C 146.398438 143.554688 141.789062 148.160156 136.101562 148.160156 L 23.507812 148.160156 C 17.820312 148.160156 13.207031 143.546875 13.207031 137.859375 L 13.207031 22.1875 C 13.207031 16.5 17.820312 11.890625 23.507812 11.890625 L 136.097656 11.890625 C 141.789062 11.890625 146.398438 16.5 146.398438 22.1875 Z M 146.398438 137.859375 "/>
    <path d="M 136.097656 19.15625 L 23.507812 19.15625 C 21.832031 19.15625 20.46875 20.511719 20.46875 22.191406 L 20.46875 137.863281 C 20.46875 139.535156 21.828125 140.902344 23.507812 140.902344 L 136.097656 140.902344 C 137.769531 140.902344 139.132812 139.539062 139.132812 137.863281 L 139.132812 22.1875 C 139.132812 20.511719 137.773438 19.15625 136.097656 19.15625 Z M 105.722656 85.445312 C 98.929688 91.851562 88.828125 94.726562 77.058594 94.726562 C 74.445312 94.726562 72.207031 94.59375 70.226562 94.332031 L 70.226562 125.921875 L 50.632812 125.921875 L 50.632812 38.898438 C 56.796875 37.851562 65.367188 37.0625 77.527344 37.0625 C 89.820312 37.0625 98.554688 39.417969 104.445312 44.128906 C 110.0625 48.570312 113.847656 55.894531 113.847656 64.523438 C 113.847656 73.160156 110.960938 80.484375 105.722656 85.445312 Z M 105.722656 85.445312 "/>
  </g>
</svg>
